<?xml version="1.0" encoding="iso-8859-1"?>
<!-- Generator: Adobe Illustrator 16.0.0, SVG Export Plug-In . SVG Version: 6.00 Build 0)  -->
<!DOCTYPE svg PUBLIC "-//W3C//DTD SVG 1.1//EN" "http://www.w3.org/Graphics/SVG/1.1/DTD/svg11.dtd">
<svg version="1.1" xmlns="http://www.w3.org/2000/svg" xmlns:xlink="http://www.w3.org/1999/xlink" x="0px" y="0px" width="512px"
	 height="512px" viewBox="0 0 512 512" style="enable-background:new 0 0 512 512;" xml:space="preserve">
<g id="_x37_71_x2C__Building_x2C__office_x2C__place_x2C__work_x2C__city">
	<g>
		<path d="M405.168,169.771l76.286,30.514c5.148,2.06,10.956-0.465,12.999-5.571c2.051-5.128-0.443-10.947-5.571-12.999l-80-32
			c-2.385-0.954-5.043-0.954-7.428,0l-36.286,14.515V91c0-5.523-4.478-10-10-10h-20V61c0-5.523-4.478-10-10-10h-140
			c-5.523,0-10,4.477-10,10v20h-20c-5.523,0-10,4.477-10,10v73.23l-36.286-14.515c-2.384-0.954-5.044-0.954-7.428,0l-80,32
			c-5.128,2.051-7.622,7.871-5.571,12.999c2.045,5.112,7.857,7.628,12.999,5.571l76.286-30.514l40,16v10.459l-36.286-14.515
			c-2.384-0.954-5.044-0.954-7.428,0l-50,20c-3.797,1.519-6.286,5.196-6.286,9.285v260h-20c-5.523,0-10,4.478-10,10s4.477,10,10,10
			c56.396,0,407.755,0,460,0c5.522,0,10-4.478,10-10s-4.478-10-10-10h-20V211c0-4.089-2.489-7.766-6.286-9.285l-50-20
			c-2.385-0.954-5.043-0.954-7.428,0l-36.286,14.515v-10.459L405.168,169.771z M195.168,71h120v10h-120V71z M65.168,217.771l40-16
			l40,16V471h-80V217.771z M165.168,101c106.146,0,75.452,0,180,0c0,15.701,0,355.019,0,370h-30v-40c0-5.522-4.478-10-10-10h-100
			c-5.523,0-10,4.478-10,10v40h-30C165.168,435.986,165.168,113.417,165.168,101z M215.168,471v-30h80v30H215.168z M405.168,201.771
			l40,16V471h-80V217.771L405.168,201.771z"/>
		<rect x="375.168" y="241" width="20" height="20"/>
		<rect x="415.168" y="241" width="20" height="20"/>
		<rect x="375.168" y="271" width="20" height="20"/>
		<rect x="415.168" y="271" width="20" height="20"/>
		<rect x="375.168" y="301" width="20" height="20"/>
		<rect x="415.168" y="301" width="20" height="20"/>
		<rect x="375.168" y="331" width="20" height="20"/>
		<rect x="415.168" y="331" width="20" height="20"/>
		<rect x="375.168" y="361" width="20" height="20"/>
		<rect x="415.168" y="361" width="20" height="20"/>
		<rect x="375.168" y="391" width="20" height="20"/>
		<rect x="415.168" y="391" width="20" height="20"/>
		<rect x="375.168" y="421" width="20" height="20"/>
		<rect x="415.168" y="421" width="20" height="20"/>
		<rect x="75.168" y="241" width="20" height="20"/>
		<rect x="115.168" y="241" width="20" height="20"/>
		<rect x="75.168" y="271" width="20" height="20"/>
		<rect x="115.168" y="271" width="20" height="20"/>
		<rect x="75.168" y="301" width="20" height="20"/>
		<rect x="115.168" y="301" width="20" height="20"/>
		<rect x="75.168" y="331" width="20" height="20"/>
		<rect x="115.168" y="331" width="20" height="20"/>
		<rect x="75.168" y="361" width="20" height="20"/>
		<rect x="115.168" y="361" width="20" height="20"/>
		<rect x="75.168" y="391" width="20" height="20"/>
		<rect x="115.168" y="391" width="20" height="20"/>
		<rect x="75.168" y="421" width="20" height="20"/>
		<rect x="115.168" y="421" width="20" height="20"/>
		<rect x="195.168" y="121" width="50" height="20"/>
		<rect x="265.168" y="121" width="50" height="20"/>
		<rect x="195.168" y="151" width="50" height="20"/>
		<rect x="265.168" y="151" width="50" height="20"/>
		<rect x="195.168" y="181" width="50" height="20"/>
		<rect x="265.168" y="181" width="50" height="20"/>
		<rect x="195.168" y="211" width="50" height="20"/>
		<rect x="265.168" y="211" width="50" height="20"/>
		<rect x="195.168" y="241" width="50" height="20"/>
		<rect x="265.168" y="241" width="50" height="20"/>
		<rect x="195.168" y="271" width="50" height="20"/>
		<rect x="265.168" y="271" width="50" height="20"/>
		<rect x="195.168" y="301" width="50" height="20"/>
		<rect x="265.168" y="301" width="50" height="20"/>
		<rect x="195.168" y="331" width="50" height="20"/>
		<rect x="265.168" y="331" width="50" height="20"/>
		<rect x="195.168" y="361" width="50" height="20"/>
		<rect x="265.168" y="361" width="50" height="20"/>
		<path d="M41.834,74.333h0.279C46.077,84.098,55.665,91,66.834,91h33.333c14.704,0,26.667-11.962,26.667-26.667
			s-11.962-26.667-26.667-26.667h-0.279C95.925,27.902,86.338,21,75.168,21H41.834C27.13,21,15.168,32.962,15.168,47.667
			S27.13,74.333,41.834,74.333z M41.834,41h33.333c3.676,0,6.667,2.991,6.667,6.667c0,5.523,4.477,10,10,10h8.333
			c3.676,0,6.667,2.991,6.667,6.667c0,3.676-2.991,6.667-6.667,6.667H66.834c-3.676,0-6.667-2.991-6.667-6.667
			c0-5.523-4.477-10-10-10h-8.333c-3.676,0-6.667-2.991-6.667-6.667C35.168,43.991,38.159,41,41.834,41z"/>
		<path d="M411.835,124.333h0.278c3.964,9.764,13.552,16.667,24.722,16.667h33.333c14.704,0,26.667-11.962,26.667-26.667
			s-11.963-26.667-26.667-26.667h-0.278C465.926,77.902,456.338,71,445.168,71h-33.333c-14.704,0-26.667,11.962-26.667,26.667
			S397.131,124.333,411.835,124.333z M411.835,91h33.333c3.676,0,6.667,2.991,6.667,6.667c0,5.523,4.478,10,10,10h8.333
			c3.676,0,6.667,2.991,6.667,6.667c0,3.676-2.991,6.667-6.667,6.667h-33.333c-3.676,0-6.667-2.991-6.667-6.667
			c0-5.523-4.478-10-10-10h-8.333c-3.676,0-6.667-2.991-6.667-6.667C405.168,93.991,408.159,91,411.835,91z"/>
	</g>
</g>
<g id="Layer_1">
</g>
</svg>
